:SAMPLES-PER-SECOND 25
:FULLY-SPECIFIED
:DEGREES
172
root  5.10729 74.5544 -11.8294 3.95181 -61.1486 -7.20447
RightUpLeg  -9.39073 13.3517 5.93725
RightLeg  22.0441 16.0741 6.84102
RightFoot  -10.2323 -0.0560203 -1.3648
RightToes  2.84633e-005 7.89722e-005 -0.000426369
Spine  3.20235 0.361874 3.11028
Spine1  6.43738 0.553192 5.85299
HEad  44.4691 -12.0868 -11.5473
LeftShoulder1  -3.88251e-019 0 -3.92111e-022
LeftArm  -35.551 7.40337 -81.1251
LeftForeArm  26.7887 2.03163 2.27901
LeftHand  -0.669032 -5.13401 7.67966
RightShoulder  7.45443e-017 -2.42657e-020 1.96277e-018
RightArm  -19.0757 -7.84427 71.173
RightForeArm  19.1889 13.4414 7.83433
RightHand  -1.39425 10.4739 -10.5492
LeftUpLeg  -14.9493 -17.9104 13.3459
LeftLeg  27.2651 -22.2449 -11.6638
LeftFoot  -17.3723 -0.292269 -7.48814
LeftToes  3.91355e-005 3.11907e-005 -4.10385e-006
173
root  5.29805 74.6058 -10.9458 6.28695 -67.0829 -9.31867
RightUpLeg  -9.50566 14.72 4.73647
RightLeg  22.2665 20.5074 8.7762
RightFoot  -10.4701 -0.0712704 0.00755687
RightToes  2.84633e-005 7.89722e-005 -0.000426369
Spine  3.22362 0.0555501 3.22656
Spine1  6.46411 -0.024853 5.62476
HEad  44.7944 -13.6121 -13.293
LeftShoulder1  -3.88251e-019 0 -3.92111e-022
LeftArm  -35.988 6.96303 -80.8311
LeftForeArm  27.235 2.00622 2.91207
LeftHand  -0.790336 -5.08211 9.04771
RightShoulder  7.45443e-017 -2.42657e-020 1.96277e-018
RightArm  -23.0904 -6.70819 70.2386
RightForeArm  22.2275 10.8658 7.05858
RightHand  -1.57053 10.9541 -11.5014
LeftUpLeg  -13.0336 -13.6448 11.5904
LeftLeg  27.397 -18.8515 -10.0082
LeftFoot  -17.4979 -0.0195213 -2.25947
LeftToes  3.91355e-005 3.11907e-005 -4.10385e-006
174
root  5.51591 74.7323 -10.0385 10.0898 -72.2569 -12.7397
RightUpLeg  -9.57455 15.0787 3.37587
RightLeg  21.5525 25.3346 10.3563
RightFoot  -10.2452 -0.0863716 1.77607
RightToes  2.84633e-005 7.89722e-005 -0.000426369
Spine  3.1801 -0.396664 3.25911
Spine1  6.3528 -0.899285 5.40866
HEad  44.2412 -15.8546 -13.6655
LeftShoulder1  -3.88251e-019 0 -3.92111e-022
LeftArm  -35.9106 6.51092 -80.8881
LeftForeArm  27.3103 1.99836 3.56888
LeftHand  -0.974609 -4.83176 11.3412
RightShoulder  7.45443e-017 -2.42657e-020 1.96277e-018
RightArm  -24.6772 -6.15216 68.9983
RightForeArm  23.9351 9.50968 6.66914
RightHand  -1.47206 10.3347 -11.209
LeftUpLeg  -11.4169 -11.95 9.98023
LeftLeg  26.113 -14.5465 -7.31793
LeftFoot  -17.4915 0.174639 1.27422
LeftToes  3.91355e-005 3.11907e-005 -4.10385e-006
175
root  5.76513 74.7969 -9.15211 18.0877 -77.3397 -19.8181
RightUpLeg  -10.7322 14.3694 2.13752
RightLeg  21.5776 31.3167 12.2553
RightFoot  -9.77216 -0.111335 3.30284
RightToes  2.84633e-005 7.89722e-005 -0.000426369
Spine  3.04799 -0.7929 3.47118
Spine1  6.06568 -1.68795 5.62922
HEad  43.1608 -17.2173 -12.5246
LeftShoulder1  -3.88251e-019 0 -3.92111e-022
LeftArm  -35.2162 5.61392 -81.1002
LeftForeArm  26.256 2.03099 2.84541
LeftHand  -0.816807 -5.26126 9.19981
RightShoulder  7.45443e-017 -2.42657e-020 1.96277e-018
RightArm  -25.509 -5.61991 67.7794
RightForeArm  23.1907 8.61927 5.57918
RightHand  -1.58955 10.4483 -11.9793
LeftUpLeg  -10.9147 -10.7161 8.98131
LeftLeg  25.2764 -10.5529 -5.06176
LeftFoot  -18.1046 0.175778 1.14286
LeftToes  3.91355e-005 3.11907e-005 -4.10385e-006
176
root  6.02318 74.9056 -8.31792 33.7487 -82.4276 -34.2471
RightUpLeg  -12.1671 12.104 0.960284
RightLeg  21.6132 39.028 13.8536
RightFoot  -9.2261 -0.172006 5.91366
RightToes  2.84633e-005 7.89722e-005 -0.000426369
Spine  2.98638 -1.00428 3.52799
Spine1  5.92793 -2.11805 5.5331
HEad  42.8486 -18.6532 -11.4807
LeftShoulder1  -3.88251e-019 0 -3.92111e-022
LeftArm  -34.7417 3.97208 -80.9921
LeftForeArm  26.4134 2.03212 2.45229
LeftHand  -0.809085 -5.37242 9.02569
RightShoulder  7.45443e-017 -2.42657e-020 1.96277e-018
RightArm  -26.3221 -4.97102 66.8088
RightForeArm  21.5312 7.77107 4.57028
RightHand  -1.67078 10.8417 -12.2806
LeftUpLeg  -10.6613 -6.96542 7.81118
LeftLeg  24.005 -8.67281 -3.87539
LeftFoot  -18.026 0.19917 1.5577
LeftToes  3.91355e-005 3.11907e-005 -4.10385e-006
177
root  6.35268 74.9995 -7.55104 83.5185 -85.6939 -82.191
RightUpLeg  -14.6165 8.1445 0.327919
RightLeg  21.5645 45.9372 14.8303
RightFoot  -9.1632 -0.276469 11.2439
RightToes  2.84633e-005 7.89722e-005 -0.000426369
Spine  2.50054 -1.28445 3.21675
Spine1  4.94585 -2.69044 4.61571
HEad  43.0415 -19.9841 -11.4455
LeftShoulder1  -3.88251e-019 0 -3.92111e-022
LeftArm  -33.3409 3.84658 -79.978
LeftForeArm  25.6018 2.06165 2.32999
LeftHand  -0.871746 -5.35849 9.70984
RightShoulder  7.45443e-017 -2.42657e-020 1.96277e-018
RightArm  -26.5305 -5.22346 67.2974
RightForeArm  21.0248 7.07913 4.16604
RightHand  -1.80223 10.6545 -13.3518
LeftUpLeg  -11.5473 -2.98862 6.65153
LeftLeg  22.8934 -6.56836 -2.70759
LeftFoot  -17.1813 0.21943 2.2888
LeftToes  3.91355e-005 3.11907e-005 -4.10385e-006
178
root  6.63939 75.0612 -6.80418 141.025 -83.0352 -138.672
RightUpLeg  -16.1588 3.87094 0.882098
RightLeg  19.0378 46.6141 13.0575
RightFoot  -9.05868 -0.421035 17.844
RightToes  2.84633e-005 7.89722e-005 -0.000426369
Spine  2.49998 -1.41138 3.36915
Spine1  4.92616 -2.9951 4.53204
HEad  41.3708 -20.7833 -11.3467
LeftShoulder1  -3.88251e-019 0 -3.92111e-022
LeftArm  -33.6986 2.5593 -78.9516
LeftForeArm  25.7063 2.05273 2.50716
LeftHand  -0.878081 -5.4492 9.7001
RightShoulder  7.45443e-017 -2.42657e-020 1.96277e-018
RightArm  -26.3522 -5.54105 67.284
RightForeArm  19.9669 7.13417 4.14798
RightHand  -1.66919 10.4471 -12.5604
LeftUpLeg  -11.9929 -0.639943 5.87228
LeftLeg  22.3088 -3.09878 -1.06324
LeftFoot  -16.7427 0.243971 3.03805
LeftToes  3.91355e-005 3.11907e-005 -4.10385e-006
179
root  6.83167 75.0941 -6.15653 158.006 -77.4062 -155.2
RightUpLeg  -16.8755 2.6795 1.82838
RightLeg  14.8965 36.7321 8.43136
RightFoot  -8.11772 -0.690692 22.2169
RightToes  2.84633e-005 7.89722e-005 -0.000426369
Spine  2.68395 -1.45793 3.44382
Spine1  5.28064 -3.1168 4.49261
HEad  40.1079 -21.0061 -11.3559
LeftShoulder1  -3.88251e-019 0 -3.92111e-022
LeftArm  -33.3311 1.58136 -78.2225
LeftForeArm  25.0971 2.06462 3.12296
LeftHand  -0.916643 -5.31528 10.2345
RightShoulder  7.45443e-017 -2.42657e-020 1.96277e-018
RightArm  -25.9243 -5.46553 67.3904
RightForeArm  20.8533 6.58152 4.14516
RightHand  -1.59356 10.363 -12.0731
LeftUpLeg  -11.8578 1.09963 5.39511
LeftLeg  22.0958 1.03091 0.793121
LeftFoot  -16.9043 0.233839 2.72017
LeftToes  3.91355e-005 3.11907e-005 -4.10385e-006
180
root  6.89983 75.1615 -5.55778 165.325 -71.3224 -162.1
RightUpLeg  -17.2282 2.18395 2.27931
RightLeg  12.9777 20.746 4.68653
RightFoot  -7.88284 -0.661908 19.9357
RightToes  2.84633e-005 7.89722e-005 -0.000426369
Spine  2.724 -1.32376 3.22478
Spine1  5.37195 -2.82938 4.43366
HEad  39.3909 -20.7684 -11.315
LeftShoulder1  -3.88251e-019 0 -3.92111e-022
LeftArm  -32.963 1.15456 -77.0774
LeftForeArm  23.9172 2.10378 2.76578
LeftHand  -1.03884 -5.3312 11.5249
RightShoulder  7.45443e-017 -2.42657e-020 1.96277e-018
RightArm  -26.0665 -5.69695 67.8892
RightForeArm  23.1588 5.81139 3.58163
RightHand  -1.52884 10.4738 -11.5263
LeftUpLeg  -11.4159 2.4987 4.6849
LeftLeg  21.5429 5.73667 2.82075
LeftFoot  -16.4989 0.239738 3.12683
LeftToes  3.91355e-005 3.11907e-005 -4.10385e-006
181
root  6.9152 75.2738 -5.02986 169.733 -65.6018 -165.869
RightUpLeg  -17.4579 0.936645 2.57431
RightLeg  13.3844 7.2048 2.08378
RightFoot  -8.08878 -0.462032 14.258
RightToes  2.84633e-005 7.89722e-005 -0.000426369
Spine  2.56672 -1.21805 2.87491
Spine1  5.07792 -2.58191 4.33451
HEad  38.9672 -20.3371 -11.3021
LeftShoulder1  -3.88251e-019 0 -3.92111e-022
LeftArm  -32.6979 0.765354 -75.7388
LeftForeArm  23.0338 2.13571 1.80023
LeftHand  -0.977806 -5.35915 10.8461
RightShoulder  7.45443e-017 -2.42657e-020 1.96277e-018
RightArm  -26.3211 -6.67824 68.3621
RightForeArm  24.6614 5.36038 3.98445
RightHand  -1.46199 9.83598 -11.48
LeftUpLeg  -11.0577 4.15643 3.89609
LeftLeg  20.4638 9.73924 4.32226
LeftFoot  -15.7579 0.210303 2.99875
LeftToes  3.91355e-005 3.11907e-005 -4.10385e-006
182
root  6.85794 75.3512 -4.57289 172.499 -60.1298 -168.084
RightUpLeg  -17.485 -3.02287 3.21776
RightLeg  15.2274 -1.91951 -0.0307743
RightFoot  -6.76382 -0.380465 8.30087
RightToes  2.84633e-005 7.89722e-005 -0.000426369
Spine  2.39164 -1.19256 2.66824
Spine1  4.74068 -2.49884 4.44639
HEad  38.3846 -19.1688 -11.5965
LeftShoulder1  -3.88251e-019 0 -3.92111e-022
LeftArm  -32.5104 1.2928 -75.2725
LeftForeArm  22.1535 1.43407 1.21834
LeftHand  -0.908224 -5.16767 10.2702
RightShoulder  7.45443e-017 -2.42657e-020 1.96277e-018
RightArm  -26.4055 -7.91528 68.8701
RightForeArm  24.3722 4.83729 4.42249
RightHand  -1.38984 9.57124 -11.1184
LeftUpLeg  -10.786 5.54477 3.16648
LeftLeg  19.7932 13.5698 5.67606
LeftFoot  -15.3125 0.169798 2.24875
LeftToes  3.91355e-005 3.11907e-005 -4.10385e-006
183
root  6.74205 75.4079 -4.18917 173.99 -54.3179 -169.391
RightUpLeg  -16.9106 -6.80674 4.15152
RightLeg  17.2798 -8.40546 -2.71548
RightFoot  -6.63857 -0.236496 4.58898
RightToes  2.84633e-005 7.89722e-005 -0.000426369
Spine  2.34306 -1.02256 2.48893
Spine1  4.65537 -2.13563 4.45546
HEad  37.6687 -18.4639 -11.6691
LeftShoulder1  -3.88251e-019 0 -3.92111e-022
LeftArm  -32.6708 1.45388 -75.1418
LeftForeArm  21.0443 0.251509 1.48975
LeftHand  -0.971255 -5.40716 10.7335
RightShoulder  7.45443e-017 -2.42657e-020 1.96277e-018
RightArm  -26.8151 -9.29932 69.761
RightForeArm  23.9279 4.75777 3.84747
RightHand  -1.44586 9.90544 -11.3105
LeftUpLeg  -10.1562 7.08889 2.71389
LeftLeg  19.5089 17.6668 7.11633
LeftFoot  -15.0337 0.155753 2.03485
LeftToes  3.91355e-005 3.11907e-005 -4.10385e-006
184
root  6.62828 75.4469 -3.91372 175.367 -48.2713 -170.64
RightUpLeg  -15.9648 -8.48408 4.40955
RightLeg  18.4642 -12.7262 -4.74417
RightFoot  -6.83812 -0.150168 2.65926
RightToes  2.84633e-005 7.89722e-005 -0.000426369
Spine  2.34965 -0.77073 2.34434
Spine1  4.67991 -1.62096 4.43548
HEad  36.9762 -17.6288 -12.0106
LeftShoulder1  -3.88251e-019 0 -3.92111e-022
LeftArm  -33.0043 1.15652 -75.435
LeftForeArm  21.3674 0.160663 1.43461
LeftHand  -0.867185 -5.44653 9.58465
RightShoulder  7.45443e-017 -2.42657e-020 1.96277e-018
RightArm  -26.9329 -10.1204 70.3202
RightForeArm  24.3682 4.5612 3.53436
RightHand  -1.3775 9.76493 -10.8928
LeftUpLeg  -9.42803 8.43466 2.23872
LeftLeg  19.2798 22.2919 8.59112
LeftFoot  -14.6683 0.148481 2.08022
LeftToes  3.91355e-005 3.11907e-005 -4.10385e-006
185
root  6.48849 75.4496 -3.76639 176.737 -42.2581 -171.893
RightUpLeg  -14.8172 -8.12242 4.15093
RightLeg  18.7964 -15.1952 -5.77565
RightFoot  -6.53262 -0.0887369 1.06035
RightToes  2.84633e-005 7.89722e-005 -0.000426369
Spine  2.18883 -0.740507 2.05613
Spine1  4.3627 -1.54356 4.04412
HEad  36.6928 -15.8734 -12.2652
LeftShoulder1  -3.88251e-019 0 -3.92111e-022
LeftArm  -32.7553 1.77513 -75.6976
LeftForeArm  20.9301 0.0772274 1.57425
LeftHand  -0.897748 -5.40097 9.95051
RightShoulder  7.45443e-017 -2.42657e-020 1.96277e-018
RightArm  -26.8959 -10.1482 70.8412
RightForeArm  25.7075 3.62666 3.29247
RightHand  -1.22985 9.4251 -9.98344
LeftUpLeg  -8.75794 9.50112 1.64449
LeftLeg  19.2871 27.207 10.0449
LeftFoot  -14.4372 0.136804 1.85705
LeftToes  3.91355e-005 3.11907e-005 -4.10385e-006
186
root  6.35786 75.4458 -3.73893 178.011 -36.7336 -173.207
RightUpLeg  -13.2222 -6.46119 3.49339
RightLeg  17.3408 -16.3828 -5.39216
RightFoot  -6.00859 -0.0842699 0.933061
RightToes  2.84633e-005 7.89722e-005 -0.000426369
Spine  1.98798 -0.828268 1.83995
Spine1  3.95864 -1.70782 3.62911
HEad  36.3376 -14.2801 -12.623
LeftShoulder1  -3.88251e-019 0 -3.92111e-022
LeftArm  -33.1116 2.214 -76.1077
LeftForeArm  21.1744 0.687828 1.48129
LeftHand  -0.912783 -5.39036 10.1214
RightShoulder  7.45443e-017 -2.42657e-020 1.96277e-018
RightArm  -26.8677 -10.3352 71.5358
RightForeArm  26.5142 2.69462 3.44436
RightHand  -1.43755 9.6512 -11.4271
LeftUpLeg  -8.06504 9.9198 0.902132
LeftLeg  19.4187 32.5974 11.4731
LeftFoot  -13.9515 0.116529 1.4384
LeftToes  3.91355e-005 3.11907e-005 -4.10385e-006
